<?xml version="1.0" encoding="utf-8"?>
<!-- Generator: Adobe Illustrator 26.5.0, SVG Export Plug-In . SVG Version: 6.00 Build 0)  -->
<svg version="1.1" id="레이어_1" xmlns="http://www.w3.org/2000/svg" xmlns:xlink="http://www.w3.org/1999/xlink" x="0px"
	 y="0px" viewBox="0 0 40.4 40.4" style="enable-background:new 0 0 40.4 40.4;" xml:space="preserve">
<style type="text/css">
	.st0{fill:url(#SVGID_1_);stroke:#FFFFFF;stroke-width:0.25;stroke-miterlimit:10;}
	
		.st1{fill:url(#SVGID_00000026853644658705860240000011252741357673388475_);stroke:#FFFFFF;stroke-width:0.25;stroke-miterlimit:10;}
</style>
<g>
	<linearGradient id="SVGID_1_" gradientUnits="userSpaceOnUse" x1="14.7172" y1="-1.657" x2="14.7172" y2="23.4795">
		<stop  offset="0" style="stop-color:#FAFAFA"/>
		<stop  offset="1" style="stop-color:#CCCCCC"/>
	</linearGradient>
	<path class="st0" d="M6.8,12.6c0.5,0,1,0.1,1.5,0.2c1.3-3.3,4.6-5.7,8.3-5.7c4.8,0,8.7,3.7,9,8.4c1.9,0.7,3.3,2.5,3.3,4.6
		c0,2.7-2.2,4.9-4.9,4.9H6.8c-3.4,0-6.2-2.8-6.2-6.2C0.6,15.4,3.4,12.6,6.8,12.6z"/>
	
		<linearGradient id="SVGID_00000134970864549701661560000017661907142256768922_" gradientUnits="userSpaceOnUse" x1="15.5774" y1="14.7362" x2="29.3719" y2="29.0233">
		<stop  offset="0.3116" style="stop-color:#FAFAFA"/>
		<stop  offset="1" style="stop-color:#E0E0E0"/>
	</linearGradient>
	
		<path style="fill:url(#SVGID_00000134970864549701661560000017661907142256768922_);stroke:#FFFFFF;stroke-width:0.25;stroke-miterlimit:10;" d="
		M14.3,16c0.6,0,1.1,0.1,1.7,0.2c1.5-3.8,5.3-6.6,9.6-6.6c5.5,0,10,4.3,10.4,9.8c2.2,0.8,3.8,2.9,3.8,5.3c0,3.1-2.5,5.7-5.7,5.7
		H14.3c-4,0-7.2-3.2-7.2-7.2C7.1,19.2,10.3,16,14.3,16z"/>
</g>
</svg>
