<?xml version="1.0" encoding="utf-8"?>
<!-- Generator: Adobe Illustrator 26.5.0, SVG Export Plug-In . SVG Version: 6.00 Build 0)  -->
<svg version="1.1" id="레이어_1" xmlns="http://www.w3.org/2000/svg" xmlns:xlink="http://www.w3.org/1999/xlink" x="0px"
	 y="0px" viewBox="0 0 40.4 40.4" style="enable-background:new 0 0 40.4 40.4;" xml:space="preserve">
<style type="text/css">
	.st0{fill:#FFC01E;}
	.st1{fill:url(#SVGID_1_);stroke:#FFFFFF;stroke-width:0.25;stroke-miterlimit:10;}
</style>
<g>
	<circle class="st0" cx="14.3" cy="16.6" r="7.5"/>
	<g>
		<g>
			<path class="st0" d="M14.9,7.1c-0.4,0-0.7-0.3-0.7-0.7V3.3c0-0.4,0.3-0.7,0.7-0.7s0.7,0.3,0.7,0.7v3.1
				C15.5,6.8,15.2,7.1,14.9,7.1z"/>
		</g>
		<g>
			<path class="st0" d="M7.4,9.7c-0.2,0-0.4-0.1-0.5-0.2L4.8,7.3c-0.3-0.3-0.3-0.7,0-1C5,6,5.5,6,5.7,6.3l2.2,2.2
				c0.3,0.3,0.3,0.7,0,1C7.8,9.6,7.6,9.7,7.4,9.7z"/>
		</g>
		<g>
			<path class="st0" d="M4,16.7H0.9c-0.4,0-0.7-0.3-0.7-0.7c0-0.4,0.3-0.7,0.7-0.7H4c0.4,0,0.7,0.3,0.7,0.7
				C4.7,16.4,4.4,16.7,4,16.7z"/>
		</g>
		<g>
			<path class="st0" d="M4.4,26.3c-0.2,0-0.4-0.1-0.5-0.2c-0.3-0.3-0.3-0.7,0-1L6.1,23c0.3-0.3,0.7-0.3,1,0s0.3,0.7,0,1l-2.2,2.2
				C4.8,26.3,4.6,26.3,4.4,26.3z"/>
		</g>
		<g>
			<path class="st0" d="M13.7,30.7c-0.4,0-0.7-0.3-0.7-0.7v-3.1c0-0.4,0.3-0.7,0.7-0.7s0.7,0.3,0.7,0.7V30
				C14.4,30.4,14,30.7,13.7,30.7z"/>
		</g>
		<g>
			<path class="st0" d="M23.3,27.2c-0.2,0-0.4-0.1-0.5-0.2l-2.2-2.2c-0.3-0.3-0.3-0.7,0-1c0.3-0.3,0.7-0.3,1,0l2.2,2.2
				c0.3,0.3,0.3,0.7,0,1C23.6,27.1,23.4,27.2,23.3,27.2z"/>
		</g>
		<g>
			<path class="st0" d="M27.6,17.9h-3.1c-0.4,0-0.7-0.3-0.7-0.7c0-0.4,0.3-0.7,0.7-0.7h3.1c0.4,0,0.7,0.3,0.7,0.7
				C28.3,17.6,28,17.9,27.6,17.9z"/>
		</g>
		<g>
			<path class="st0" d="M21.9,10.5c-0.2,0-0.4-0.1-0.5-0.2c-0.3-0.3-0.3-0.7,0-1l2.2-2.2c0.3-0.3,0.7-0.3,1,0c0.3,0.3,0.3,0.7,0,1
				l-2.2,2.2C22.3,10.5,22.1,10.5,21.9,10.5z"/>
		</g>
	</g>
</g>
<linearGradient id="SVGID_1_" gradientUnits="userSpaceOnUse" x1="22.7454" y1="12.1009" x2="22.7454" y2="31.2748" gradientTransform="matrix(-1 0 0 1 45.5951 0)">
	<stop  offset="0.3116" style="stop-color:#FAFAFA"/>
	<stop  offset="1" style="stop-color:#E0E0E0"/>
</linearGradient>
<path class="st1" d="M13.2,17.2c0.6,0,1.2,0.1,1.8,0.2c1.6-4.1,5.6-6.9,10.2-6.9c5.9,0,10.6,4.6,11,10.3c2.3,0.8,4,3,4,5.7
	c0,3.3-2.7,6-6,6h-21c-4.2,0-7.6-3.4-7.6-7.6C5.5,20.6,9,17.2,13.2,17.2z"/>
</svg>
